<?xml version="1.0" encoding="UTF-8" standalone="no"?>
<!-- Created with Inkscape (http://www.inkscape.org/) -->

<svg
   xmlns:dc="http://purl.org/dc/elements/1.1/"
   xmlns:cc="http://creativecommons.org/ns#"
   xmlns:rdf="http://www.w3.org/1999/02/22-rdf-syntax-ns#"
   xmlns:svg="http://www.w3.org/2000/svg"
   xmlns="http://www.w3.org/2000/svg"
   xmlns:sodipodi="http://sodipodi.sourceforge.net/DTD/sodipodi-0.dtd"
   xmlns:inkscape="http://www.inkscape.org/namespaces/inkscape"
   width="320"
   height="320"
   viewBox="0 0 84.666665 84.666669"
   version="1.1"
   id="svg3785"
   inkscape:version="0.92.3 (2405546, 2018-03-11)"
   sodipodi:docname="rys.svg">
  <defs
     id="defs3779" />
  <sodipodi:namedview
     id="base"
     pagecolor="#ffffff"
     bordercolor="#666666"
     borderopacity="1.0"
     inkscape:pageopacity="0.0"
     inkscape:pageshadow="2"
     inkscape:zoom="1.6183206"
     inkscape:cx="136.88794"
     inkscape:cy="151.75834"
     inkscape:document-units="mm"
     inkscape:current-layer="layer1"
     showgrid="false"
     units="px"
     inkscape:window-width="1920"
     inkscape:window-height="1017"
     inkscape:window-x="-8"
     inkscape:window-y="-8"
     inkscape:window-maximized="1" />
  <metadata
     id="metadata3782">
    <rdf:RDF>
      <cc:Work
         rdf:about="">
        <dc:format>image/svg+xml</dc:format>
        <dc:type
           rdf:resource="http://purl.org/dc/dcmitype/StillImage" />
        <dc:title></dc:title>
      </cc:Work>
    </rdf:RDF>
  </metadata>
  <g
     inkscape:label="Layer 1"
     inkscape:groupmode="layer"
     id="layer1"
     transform="translate(0,-212.33332)">
    <path
       style="opacity:1;fill:#ececec;fill-opacity:0.97989953;stroke-width:1.07177031"
       d="M 160 0 A 160 160 0 0 0 0 160 A 160 160 0 0 0 160 320 A 160 160 0 0 0 320 160 A 160 160 0 0 0 160 0 z M 160 10 A 150 150 0 0 1 310 160 A 150 150 0 0 1 160 310 A 150 150 0 0 1 10 160 A 150 150 0 0 1 160 10 z "
       id="path4330"
       transform="matrix(0.26458333,0,0,0.26458333,0,212.33332)" />
    <text
       xml:space="preserve"
       style="font-style:normal;font-weight:normal;font-size:44.46331787px;line-height:1.25;font-family:sans-serif;letter-spacing:0px;word-spacing:0px;fill:#ececec;fill-opacity:0.97989951;stroke:none;stroke-width:1.11158288"
       x="18.363182"
       y="269.43811"
       id="text4350"><tspan
         sodipodi:role="line"
         id="tspan4348"
         x="18.363182"
         y="269.43811"
         style="fill:#ececec;fill-opacity:0.97989951;stroke-width:1.11158288">A/</tspan></text>
    <path
       style="opacity:1;fill:#ececec;fill-opacity:0.97989951;stroke-width:3.14475203"
       d="M 160 7 A 153 153 0 0 0 7 160 A 153 153 0 0 0 160 313 A 153 153 0 0 0 313 160 A 153 153 0 0 0 160 7 z M 160 25 A 135 135 0 0 1 295 160 A 135 135 0 0 1 160 295 A 135 135 0 0 1 25 160 A 135 135 0 0 1 160 25 z "
       transform="matrix(0.26458333,0,0,0.26458333,0,212.33332)"
       id="path4376" />
  </g>
</svg>
